<!--?xml version="1.0" standalone="no"?-->
<svg id="sw-js-blob-svg" viewBox="0 0 100 100" xmlns="http://www.w3.org/2000/svg" version="1.1">
    <defs> 
        <linearGradient id="sw-gradient" x1="0" x2="1" y1="1" y2="0">
            <stop id="stop1" stop-color="rgba(255, 83, 83, 1)" offset="0%"></stop>
            <stop id="stop2" stop-color="rgba(34, 34, 34, 1)" offset="100%"></stop>
        </linearGradient>
    </defs>
    <path fill="url(#sw-gradient)" d="M19.5,-30.7C24.4,-27.2,26.8,-20.3,29,-13.7C31.3,-7.2,33.4,-1,34.2,6.1C34.9,13.2,34.4,21.3,30.1,25.8C25.7,30.3,17.6,31.3,10,33C2.4,34.8,-4.7,37.3,-12.1,37.1C-19.6,36.8,-27.5,33.8,-32.3,28.1C-37.2,22.4,-38.9,14.1,-37.4,7C-36,-0.2,-31.3,-6.2,-28.6,-13.4C-25.9,-20.7,-25.1,-29.2,-20.6,-32.9C-16.2,-36.6,-8.1,-35.4,-0.4,-34.8C7.3,-34.2,14.6,-34.2,19.5,-30.7Z" width="100%" height="100%" transform="translate(50 50)" style="transition: all 0.3s ease 0s;" stroke-width="0" stroke="url(#sw-gradient)"></path>
</svg>